<?xml version="1.0" standalone="no"?>
<!DOCTYPE svg PUBLIC "-//W3C//DTD SVG 20010904//EN"
 "http://www.w3.org/TR/2001/REC-SVG-20010904/DTD/svg10.dtd">
<svg version="1.0" xmlns="http://www.w3.org/2000/svg"
 width="700.000000pt" height="700.000000pt" viewBox="0 0 700.000000 700.000000"
 preserveAspectRatio="xMidYMid meet">
<metadata>
Created by potrace 1.14, written by Peter Selinger 2001-2017
</metadata>
<g transform="translate(0.000000,700.000000) scale(0.100000,-0.100000)"
fill="#000000" stroke="none">
<path d="M960 5572 c-403 -44 -727 -259 -911 -605 l-49 -92 0 -432 0 -432 60
-118 c33 -64 60 -130 60 -146 0 -28 -6 -41 -79 -182 l-41 -79 0 -430 0 -429
36 -71 c64 -127 104 -184 204 -289 159 -168 393 -291 625 -330 82 -14 293 -15
375 -2 212 34 438 149 597 303 67 65 183 211 183 231 0 5 3 11 7 13 5 2 29 46
54 98 26 52 56 106 68 120 59 68 96 100 148 128 124 65 61 62 1202 62 1127 0
1083 2 1199 -57 91 -46 158 -123 226 -256 92 -182 185 -299 326 -412 137 -109
294 -182 473 -221 83 -18 298 -26 372 -14 28 5 66 11 87 15 121 20 325 110
431 189 159 119 268 248 353 416 l34 68 0 437 0 436 -29 59 c-16 32 -41 79
-56 104 -31 52 -36 119 -12 163 9 16 34 63 56 107 l41 78 0 437 0 436 -29 61
c-140 295 -440 535 -760 608 -163 37 -350 39 -496 6 -27 -6 -59 -13 -70 -16
-77 -15 -253 -101 -355 -173 -154 -108 -269 -248 -371 -452 -83 -166 -196
-261 -349 -292 -64 -13 -2076 -16 -2140 -3 -60 12 -178 75 -223 119 -56 54
-81 91 -128 188 -36 74 -104 188 -118 199 -4 3 -15 16 -24 30 -32 46 -132 142
-210 201 -145 109 -367 198 -540 215 -70 7 -190 10 -227 6z"/>
</g>
</svg>
