<?xml version="1.0" encoding="utf-8"?>
<svg viewBox="0 0 500 500" xmlns="http://www.w3.org/2000/svg">
  <path style="fill:#D5E2E8;" d="M 301.169 301.698 L 301.169 162.921 C 301.169 145.323 311.555 129.327 327.707 122.341 C 353.271 111.284 371.028 85.603 370.415 55.837 C 369.647 18.578 339.564 -12.047 302.324 -13.441 C 287.343 -14.002 273.357 -9.902 261.686 -2.482 C 254.659 1.985 245.608 1.985 238.581 -2.482 C 226.91 -9.902 212.924 -14.002 197.943 -13.441 C 160.703 -12.046 130.62 18.579 129.852 55.838 C 129.239 85.604 146.996 111.285 172.56 122.342 C 188.711 129.327 199.098 145.324 199.098 162.922 L 199.098 301.698 C 199.098 319.296 188.712 335.292 172.56 342.278 C 146.996 353.335 129.239 379.016 129.852 408.782 C 130.62 446.041 160.703 476.666 197.943 478.061 C 212.924 478.622 226.91 474.522 238.581 467.102 C 245.608 462.635 254.659 462.635 261.686 467.102 C 273.357 474.522 287.343 478.622 302.324 478.061 C 339.564 476.666 369.647 446.041 370.415 408.782 C 371.028 379.016 353.271 353.335 327.707 342.278 C 311.555 335.291 301.169 319.295 301.169 301.698 Z" transform="matrix(0, 1, -1, 0, 482.443512, -17.823496)"/>
  <path d="M 299.607 488.31 C 284.166 488.31 269.228 483.98 256.215 475.707 C 252.52 473.359 247.748 473.359 244.054 475.707 C 230.173 484.533 214.096 488.868 197.562 488.252 C 154.759 486.649 120.537 451.833 119.655 408.991 C 118.974 375.908 138.151 346.048 168.511 332.916 C 180.896 327.559 188.899 315.305 188.899 301.697 L 188.899 162.921 C 188.899 149.313 180.896 137.06 168.511 131.702 C 138.15 118.57 118.973 88.71 119.655 55.627 C 120.538 12.785 154.759 -22.031 197.562 -23.634 C 214.101 -24.245 230.173 -19.915 244.054 -11.089 C 247.748 -8.739 252.52 -8.74 256.215 -11.089 C 270.094 -19.913 286.158 -24.244 302.706 -23.634 C 345.509 -22.031 379.73 12.785 380.613 55.627 C 381.294 88.709 362.118 118.57 331.757 131.702 C 319.372 137.059 311.37 149.313 311.37 162.921 L 311.37 301.697 C 311.37 315.305 319.373 327.558 331.757 332.916 C 362.119 346.048 381.295 375.909 380.613 408.991 C 379.73 451.833 345.509 486.649 302.706 488.252 C 301.672 488.29 300.636 488.31 299.607 488.31 Z M 250.134 453.561 C 256.062 453.561 261.988 455.205 267.159 458.492 C 277.534 465.089 289.566 468.334 301.942 467.866 C 333.959 466.667 359.556 440.621 360.217 408.569 C 360.728 383.81 346.377 361.463 323.657 351.637 C 303.799 343.048 290.968 323.445 290.968 301.697 L 290.968 162.921 C 290.968 141.172 303.799 121.569 323.657 112.981 C 346.376 103.154 360.728 80.808 360.217 56.049 C 359.557 23.998 333.959 -2.049 301.942 -3.248 C 289.561 -3.72 277.532 -0.47 267.159 6.126 C 256.817 12.702 243.451 12.701 233.109 6.126 C 222.735 -0.47 210.711 -3.712 198.326 -3.248 C 166.309 -2.049 140.711 23.997 140.051 56.049 C 139.541 80.808 153.891 103.155 176.611 112.981 C 196.469 121.57 209.3 141.173 209.3 162.921 L 209.3 301.697 C 209.3 323.446 196.468 343.049 176.611 351.637 C 153.892 361.463 139.541 383.81 140.051 408.569 C 140.711 440.62 166.31 466.667 198.327 467.866 C 210.703 468.33 222.736 465.088 233.11 458.492 C 238.281 455.205 244.208 453.561 250.134 453.561 Z" transform="matrix(0, 1, -1, 0, 482.443604, -17.824364)"/>
  <path d="M 432.661 170.385 C 427.028 170.385 422.462 165.819 422.462 160.186 C 422.462 149.529 425.901 139.448 432.406 131.034 C 435.85 126.578 442.256 125.757 446.713 129.203 C 451.17 132.648 451.989 139.054 448.544 143.51 C 444.825 148.32 442.86 154.087 442.86 160.187 C 442.861 165.818 438.294 170.385 432.661 170.385 Z" transform="matrix(0, 1, -1, 0, 585.296936, -287.839783)"/>
  <path d="M 459.811 190.091 C 454.801 190.091 450.431 186.397 449.722 181.294 C 448.947 175.715 452.841 170.563 458.42 169.788 C 460.598 169.485 462.822 169.332 465.031 169.332 C 470.664 169.332 475.23 173.898 475.23 179.531 C 475.23 185.164 470.664 189.73 465.031 189.73 C 463.759 189.731 460.194 190.091 459.811 190.091 Z" transform="matrix(0, 1, -1, 0, 642.138367, -282.715363)"/>
</svg>