<svg viewBox="0 0 64 64" xmlns="http://www.w3.org/2000/svg"><path d="M25 13v4a12 12 0 0 1-12 12 6 6 0 0 1-6-6v-4A12 12 0 0 1 19 7a6 6 0 0 1 5.94 5.21A5.16 5.16 0 0 1 25 13ZM57 19v4a6 6 0 0 1-6 6 12 12 0 0 1-12-12v-4a5.16 5.16 0 0 1 .06-.79A6 6 0 0 1 45 7a12 12 0 0 1 12 12Z" fill="#858381" class="fill-965500"></path><path d="M53 32v17a8 8 0 0 1-8 8H19a8 8 0 0 1-8-8V32a21.84 21.84 0 0 1 .25-3.26A6 6 0 0 0 13 29a12 12 0 0 0 12-12v-4a5.16 5.16 0 0 0-.06-.79 21.2 21.2 0 0 1 14.12 0A5.16 5.16 0 0 0 39 13v4a12 12 0 0 0 12 12 6 6 0 0 0 1.75-.26A21.84 21.84 0 0 1 53 32Z" fill="#d4d4d4" class="fill-efc589"></path><path d="M43 48v3a6 6 0 0 1-6 6H27a6 6 0 0 1-6-6v-3a11 11 0 0 1 8-10.58.13.13 0 0 0 0 .06 1.49 1.49 0 0 0 .77 1.33L32 40l2.23-1.19a1.49 1.49 0 0 0 .77-1.33.13.13 0 0 0 0-.06A11 11 0 0 1 43 48Z" fill="#ba9e77" class="fill-b19267"></path><circle cx="23.5" cy="29.5" r="1.5" fill="#615454" class="fill-2d2d2d"></circle><circle cx="40.5" cy="29.5" r="1.5" fill="#615454" class="fill-2d2d2d"></circle><path d="M32 52a1 1 0 0 1-1-1V39a1 1 0 0 1 2 0v12a1 1 0 0 1-1 1Z" fill="#4a3f3c" class="fill-3e2c27"></path><path d="M35 37.48a1.49 1.49 0 0 1-.77 1.33L32 40l-2.23-1.19a1.49 1.49 0 0 1-.77-1.33.13.13 0 0 1 0-.06A1.42 1.42 0 0 1 30.39 36h3.22A1.42 1.42 0 0 1 35 37.42a.13.13 0 0 1 0 .06Z" fill="#4a3f3c" class="fill-3e2c27"></path></svg>