<svg viewBox="0 0 512 512" xmlns="http://www.w3.org/2000/svg"><circle cx="136" cy="40" fill="#4f4e4e" r="32" class="fill-fb8656"></circle><rect fill="#4f4e4e" height="240" rx="80" width="160" x="56" y="48" class="fill-fb8656"></rect><path d="M232 352H40l11.607-49.772A85 85 0 0 1 135.313 232h1.374a85 85 0 0 1 83.706 70.228Z" fill="#40423a" class="fill-98b04f"></path><path d="m168 240-3.716 3.716a40 40 0 0 1-56.568 0L104 240l16-48h32Z" fill="#e8c1bc" class="fill-ffd4cf"></path><path d="M152 192h-32l-9.987 29.96 7.674 5.075.637.363a36.083 36.083 0 0 0 17.612 4.6 36.069 36.069 0 0 0 17.784-4.7l.73-.43.386-.262 7.115-4.753Z" fill="#575353" class="fill-fbb8b0"></path><path d="M204 120h-12l-32-32-2.18 4.361A50 50 0 0 1 113.1 120H68a20 20 0 0 0-20 20v8a20 20 0 0 0 20 20h12v-1.112a30 30 0 0 0 15.26 26.129l30.807 20.374c.028.019.057.036.086.052a20 20 0 0 0 19.664-.054c.029-.016.057-.034.084-.052l30.983-20.7A30 30 0 0 0 192 166.59V168h12a20 20 0 0 0 20-20v-8a20 20 0 0 0-20-20Z" fill="#e8c1bc" class="fill-ffd4cf"></path><ellipse cx="376" cy="28" fill="#4f4e4e" rx="24" ry="20" class="fill-fb8656"></ellipse><path d="M443.633 120A52.955 52.955 0 0 0 448 98.874v-5.748A53.126 53.126 0 0 0 394.874 40h-37.748A53.126 53.126 0 0 0 304 93.126v5.748A52.955 52.955 0 0 0 308.367 120Z" fill="#4f4e4e" class="fill-fb8656"></path><path d="M472 360H280l11.607-65.772A85 85 0 0 1 375.313 224h1.374a85 85 0 0 1 83.706 70.228Z" fill="#40423a" class="fill-98b04f"></path><path d="m408 232-3.716 3.716a40 40 0 0 1-56.568 0L344 232l16-48h32Z" fill="#e8c1bc" class="fill-ffd4cf"></path><path d="M392 184h-32l-9.986 29.957 7.741 5.119.492.278A36.071 36.071 0 0 0 375.936 224a36.067 36.067 0 0 0 17.862-4.744l.485-.277 7.668-5.123Z" fill="#575353" class="fill-fbb8b0"></path><path d="M444 112H308a20 20 0 0 0-20 20v8a20 20 0 0 0 20 20h12v-1.112a30 30 0 0 0 15.26 26.129l30.849 20.4a20 20 0 0 0 19.751-.055l31.024-20.726A30 30 0 0 0 432 158.59V160h12a20 20 0 0 0 20-20v-8a20 20 0 0 0-20-20Z" fill="#e8c1bc" class="fill-ffd4cf"></path><path d="M376 80a32 32 0 0 1 32 32h-64a32 32 0 0 1 32-32Z" fill="#b3aaa1" class="fill-cc751f"></path><path fill="#949ba6" d="M8 328h496v176H8z" class="fill-2a75e6"></path><path fill="#6e6d6a" d="M8 416h496v88H8z" class="fill-f9d549"></path><path d="M92 304H28a20 20 0 0 0-20 20v14a30 30 0 0 0 30 30h12a30.009 30.009 0 0 0 29.5-24.509A20.055 20.055 0 0 0 84 344h8a20 20 0 0 0 20-20 20 20 0 0 0-20-20ZM484 304h-64a20 20 0 0 0-20 20 20 20 0 0 0 20 20h8a20.055 20.055 0 0 0 4.5-.509A30.009 30.009 0 0 0 462 368h12a30 30 0 0 0 30-30v-14a20 20 0 0 0-20-20Z" fill="#e8c1bc" class="fill-ffd4cf"></path><path fill="#78797d" d="M104 136h16v16h-16zM152 136h16v16h-16zM136 192c-13.458 0-24-8.785-24-20h16c0 1.41 3.037 4 8 4s8-2.59 8-4h16c0 11.215-10.542 20-24 20ZM344 128h16v16h-16zM392 128h16v16h-16zM376 184c-13.458 0-24-8.785-24-20h16c0 1.41 3.037 4 8 4s8-2.59 8-4h16c0 11.215-10.542 20-24 20Z" class="fill-d76b4c"></path></svg>